<?xml version="1.0" encoding="UTF-8"?><svg id="a" xmlns="http://www.w3.org/2000/svg" viewBox="0 0 20.75 21.5"><rect x="4" y=".75" width="16" height="20" rx="2" ry="2" style="fill:#fff; stroke:#999; stroke-linecap:round; stroke-linejoin:round; stroke-width:1.5px;"/><path d="m0,3.75c0-.55.45-1,1-1h6.5c.55,0,1,.45,1,1v2.5c0,.55-.45,1-1,1H1c-.55,0-1-.45-1-1v-2.5Z" style="fill:#ffbf00;"/><path d="m11.58,16.91c-.81,0-1.83-.09-3.06-.26v-1.26s.23.04.58.11c.31.06.57.11.77.14.21.02.46.04.74.06.33.03.66.05.98.05v-3.65h-.46c-1.01,0-1.73-.2-2.16-.61-.43-.41-.64-1.03-.64-1.89v-.67c0-.77.25-1.34.74-1.73.49-.38,1.33-.61,2.53-.67v-1.14h.91v1.12c.66,0,1.52.06,2.58.18v1.14c-1.31-.14-2.17-.22-2.58-.24v3.36h.48c.71,0,1.27.09,1.66.26.41.17.69.43.85.78.17.34.26.81.26,1.39v.59c0,.97-.26,1.68-.78,2.13-.52.45-1.34.7-2.46.77v2.11h-.91v-2.08Zm0-9.3c-.68.04-1.15.16-1.39.35-.25.19-.37.5-.37.93v1.02c0,.36.13.63.4.8.27.16.72.24,1.36.24v-3.34Zm.91,8.11c.58-.03,1.01-.14,1.3-.32.29-.19.43-.49.43-.9v-1.18c0-.45-.13-.76-.38-.94-.26-.18-.7-.27-1.34-.27v3.62Z" style="fill:#999;"/></svg>